<svg width="1920" height="371" viewBox="0 0 1920 371" fill="none" xmlns="http://www.w3.org/2000/svg">
<path d="M0 210.122L35.6 178.231C71.4 146.591 142.6 82.8089 213.6 82.5578C284.6 82.0556 355.4 144.833 426.4 150.609C497.4 156.636 568.6 105.409 640 80.8C711.4 56.1911 782.6 57.6978 853.6 46.1467C924.6 34.3445 995.4 9.23338 1066.4 2.20227C1137.4 -5.07995 1208.6 5.96888 1280 31.3311C1351.4 56.9444 1422.6 97.1222 1493.6 119.722C1564.6 142.322 1635.4 147.344 1706.4 153.622C1777.4 159.9 1848.6 167.433 1884.4 171.2L1920 174.967V370.833H1884.4C1848.6 370.833 1777.4 370.833 1706.4 370.833C1635.4 370.833 1564.6 370.833 1493.6 370.833C1422.6 370.833 1351.4 370.833 1280 370.833C1208.6 370.833 1137.4 370.833 1066.4 370.833C995.4 370.833 924.6 370.833 853.6 370.833C782.6 370.833 711.4 370.833 640 370.833C568.6 370.833 497.4 370.833 426.4 370.833C355.4 370.833 284.6 370.833 213.6 370.833C142.6 370.833 71.4 370.833 35.6 370.833H0V210.122Z" fill="#434343"/>
</svg>
