<svg width="1920" height="643" viewBox="0 0 1920 643" fill="none" xmlns="http://www.w3.org/2000/svg">
<path d="M0 0L35.6 25.6134C71.4 50.9756 142.6 102.202 213.6 128.82C284.6 155.689 355.4 158.2 426.4 133.591C497.4 108.731 568.6 57.0022 640 48.9667C711.4 40.9311 782.6 77.0911 853.6 98.4356C924.6 119.78 995.4 126.309 1066.4 110.991C1137.4 95.4222 1208.6 57.7555 1280 48.4644C1351.4 39.4244 1422.6 58.5089 1493.6 84.6245C1564.6 110.489 1635.4 143.133 1706.4 164.478C1777.4 185.822 1848.6 195.867 1884.4 200.889L1920 205.911V642.844H1884.4C1848.6 642.844 1777.4 642.844 1706.4 642.844C1635.4 642.844 1564.6 642.844 1493.6 642.844C1422.6 642.844 1351.4 642.844 1280 642.844C1208.6 642.844 1137.4 642.844 1066.4 642.844C995.4 642.844 924.6 642.844 853.6 642.844C782.6 642.844 711.4 642.844 640 642.844C568.6 642.844 497.4 642.844 426.4 642.844C355.4 642.844 284.6 642.844 213.6 642.844C142.6 642.844 71.4 642.844 35.6 642.844H0V0Z" fill="#848484"/>
</svg>
